<svg width="1920" height="682" viewBox="0 0 1920 682" fill="none" xmlns="http://www.w3.org/2000/svg">
    <path d="M969.979 551.058C965.164 534.864 960.37 519.086 955.63 503.49C955.649 503.456 955.084 504.023 955.047 504.621C954.328 516.453 953.837 528.3 952.958 540.119C951.792 555.801 950.354 571.464 948.983 587.13C948.597 591.534 948.035 595.922 947.457 601.207C940.7 600.875 933.567 600.525 925.43 600.126C926.268 589.564 927.066 579.454 927.873 569.345C928.239 564.768 928.642 560.194 928.995 555.617C930.006 542.533 930.769 529.425 932.063 516.369C933.446 502.425 935.348 488.534 936.967 474.612C937.371 471.131 937.557 467.625 937.854 464C947.094 464 955.582 463.889 964.062 464.115C965.395 464.151 967.499 465.459 967.872 466.62C972.14 479.896 976.143 493.257 980.213 506.596C985.639 524.378 991.127 542.142 996.43 559.96C997.435 563.333 997.704 566.926 998.216 569.869C1005.52 534.24 1018.94 499.855 1028.3 464.164C1037.94 464.164 1047.58 464.164 1057.85 464.164C1058.55 468.56 1059.49 473.094 1059.95 477.676C1061.09 489.079 1061.92 500.512 1063.02 511.919C1064.26 524.764 1065.68 537.592 1066.97 550.431C1067.38 554.508 1067.72 558.595 1067.98 562.684C1068.69 573.517 1069.26 584.358 1070.04 595.185C1070.31 598.875 1069.03 600.067 1065.27 600.108C1058.72 600.18 1052.17 600.921 1045.55 601.386C1044.99 595.954 1044.33 591.116 1044.03 586.257C1043.27 573.761 1042.81 561.245 1041.96 548.755C1040.88 532.683 1039.53 516.628 1038.51 503.406C1029.49 533.767 1019.66 566.834 1009.8 599.999C1002.14 599.999 994.816 600.135 987.505 599.864C986.303 599.82 984.5 598.203 984.101 596.954C979.278 581.833 974.666 566.646 969.979 551.058Z" fill="white"/>
    <path d="M1577.07 82.9985C1589.29 82.6651 1601.07 81.6453 1612.78 82.1715C1627.56 82.8355 1641.1 87.7313 1651.36 98.9804C1659.09 107.462 1664.17 117.679 1665.85 129.015C1668.4 146.3 1668.55 163.669 1662.95 180.517C1656.91 198.664 1645.75 212.334 1627.01 218.361C1621.84 220.023 1616.18 220.835 1610.75 220.865C1597.34 220.938 1583.92 220.406 1570.51 219.945C1567.13 219.829 1563.78 219.065 1560 218.542C1560 217.183 1560 215.725 1560 214.267C1560 172.785 1560.07 131.302 1559.9 89.8207C1559.88 85.1698 1561.53 83.836 1565.85 83.9166C1569.42 83.9834 1573.01 83.3318 1577.07 82.9985ZM1586 161.498C1586 171.985 1586.18 182.477 1585.91 192.956C1585.8 197.065 1587.63 198.054 1591.12 198.015C1596.78 197.953 1602.44 198.073 1608.1 197.983C1619.77 197.798 1629.19 193.095 1633.85 182.196C1641.87 163.439 1642.11 144.102 1635.31 124.881C1632.01 115.554 1625.67 107.899 1615.8 106.346C1606.15 104.827 1596.08 106.015 1586 106.015C1586 124.578 1586 142.538 1586 161.498Z" fill="white"/>
    <path d="M1828.17 82.9985C1840.39 82.6651 1852.17 81.6453 1863.88 82.1715C1878.66 82.8355 1892.2 87.7313 1902.46 98.9804C1910.19 107.462 1915.27 117.679 1916.95 129.015C1919.5 146.3 1919.65 163.669 1914.05 180.517C1908.01 198.664 1896.85 212.334 1878.11 218.361C1872.94 220.023 1867.28 220.835 1861.85 220.865C1848.44 220.938 1835.02 220.406 1821.61 219.945C1818.23 219.829 1814.88 219.065 1811.1 218.542C1811.1 217.183 1811.1 215.725 1811.1 214.267C1811.1 172.785 1811.17 131.302 1811 89.8207C1810.98 85.1698 1812.63 83.836 1816.95 83.9166C1820.52 83.9834 1824.11 83.3318 1828.17 82.9985ZM1837.1 161.498C1837.1 171.985 1837.28 182.477 1837.01 192.956C1836.9 197.065 1838.73 198.054 1842.22 198.015C1847.88 197.953 1853.54 198.073 1859.19 197.983C1870.87 197.798 1880.28 193.095 1884.95 182.196C1892.97 163.439 1893.21 144.102 1886.41 124.881C1883.11 115.554 1876.77 107.899 1866.9 106.346C1857.25 104.827 1847.18 106.015 1837.1 106.015C1837.1 124.578 1837.1 142.538 1837.1 161.498Z" fill="white"/>
    <path d="M1603 335.999C1603 315.528 1603 295.557 1603 274.831C1611.91 274.213 1620.66 273.551 1629.42 273.016C1636.33 272.595 1643.26 271.909 1650.17 272.082C1667.41 272.513 1683.12 276.811 1695.11 290.514C1702.81 299.312 1707.39 309.536 1708.81 320.828C1710.06 330.786 1710.73 341.051 1709.79 351.003C1707.54 374.704 1699.04 395.414 1675.93 406.265C1668.97 409.534 1660.84 411.262 1653.12 411.737C1641.94 412.425 1630.64 411.506 1619.41 410.923C1613.96 410.641 1608.57 409.564 1603 408.828C1603 384.44 1603 360.469 1603 335.999ZM1668.28 301.023C1656.08 292.341 1642.5 295.82 1629.24 296.3C1629.24 326.945 1629.24 357.321 1629.24 388.125C1633.1 388.125 1636.72 388.211 1640.34 388.107C1646.61 387.926 1653.11 388.613 1659.1 387.18C1672.54 383.962 1678.82 373.533 1680.78 360.899C1682.22 351.675 1682.02 342.137 1681.91 332.746C1681.77 320.681 1678.03 309.863 1668.28 301.023Z" fill="white"/>
    <path d="M877.995 82.999C887.695 80.3232 889.643 88.0745 892.691 93.4298C906.76 118.147 920.579 143.009 934.346 167.896C936.408 171.624 937.721 175.766 939.491 179.98C939.491 147.625 939.491 115.642 939.491 83.329C946.527 83.329 953.935 83.329 961.673 83.329C961.673 128.207 961.673 173.276 961.673 218.916C954.978 219.595 948.074 220.473 941.142 220.855C939.713 220.933 937.551 219.527 936.79 218.196C922.099 192.533 907.5 166.816 893.046 141.018C889.155 134.072 885.806 126.822 882.499 120.286C882.499 152.881 882.499 186.227 882.499 219.787C875.227 219.787 867.822 219.787 859.999 219.787C859.999 218.344 859.999 217.058 859.999 215.772C859.999 173.775 860.073 131.777 859.895 89.7807C859.875 85.1432 861.084 83.5803 865.774 83.8802C869.653 84.1283 873.6 83.3324 877.995 82.999Z" fill="white"/>
    <path d="M1061.3 281.202C1080.42 269.228 1100.47 268.93 1120.47 276.444C1132.2 280.851 1140.25 290.323 1144.94 302.106C1148.74 311.63 1150.24 321.581 1151.24 331.845C1152.77 347.575 1151.34 362.696 1146.1 377.477C1139.31 396.629 1126.27 408.19 1105.68 411.102C1091.93 413.046 1078.89 411.811 1066.18 406.069C1054.42 400.758 1047.58 391.177 1043.1 379.778C1037.51 365.579 1036.23 350.549 1037.15 335.491C1037.83 324.237 1039.31 312.838 1044.31 302.553C1048.27 294.416 1053.06 286.586 1061.3 281.202ZM1066 360.299C1066.34 362.038 1066.61 363.791 1067.02 365.513C1069.27 375.063 1072.56 384.206 1083.03 387.321C1088.21 388.863 1093.99 389.062 1099.45 388.858C1106.28 388.603 1111.92 385.695 1116.12 379.721C1122.57 370.566 1123.06 359.98 1123.81 349.62C1124.41 341.273 1124.16 332.67 1122.81 324.419C1120.56 310.529 1116.98 296.796 1098.88 294.298C1089.6 293.018 1075.29 295.983 1071.23 306.986C1068.1 315.485 1066.14 324.651 1065.25 333.678C1064.41 342.143 1065.67 350.814 1066 360.299Z" fill="white"/>
    <path d="M1447.76 572.625C1438.14 592.725 1422.21 601.83 1400.6 602.059C1391.54 602.154 1382.65 601.665 1374.06 598.564C1360.91 593.817 1352.47 584.312 1347 571.776C1339.6 554.79 1340.1 536.747 1341.28 519.017C1342.36 502.919 1347.2 487.514 1359.65 475.914C1367.52 468.586 1376.78 464.377 1387.63 462.828C1401.45 460.855 1414.46 462.453 1426.98 468.468C1438.2 473.858 1444.47 483.469 1448.99 494.508C1455.49 510.381 1455.98 527.158 1454.71 543.782C1453.97 553.401 1450.31 562.797 1447.76 572.625ZM1383.12 576.648C1386.48 577.653 1389.79 578.976 1393.22 579.599C1401.25 581.057 1414.18 578.848 1419.91 569.669C1424.71 561.998 1426.63 553.422 1426.78 544.819C1426.99 532.68 1426.21 520.451 1424.8 508.383C1423.91 500.699 1420.81 493.523 1413.62 488.905C1405.74 483.85 1397.23 483.46 1388.81 485.954C1384.51 487.23 1379.94 490.065 1377.14 493.526C1368.79 503.821 1368.92 516.819 1368.22 529.143C1367.74 537.574 1368.67 546.246 1370.2 554.584C1371.74 562.951 1374.55 571.186 1383.12 576.648Z" fill="white"/>
    <path d="M1363.03 106.048C1370.61 125.141 1363.5 150.089 1341.03 158.36C1357.86 174.967 1365.34 196.903 1376.15 218.353C1366.71 219.461 1357.73 220.515 1348.77 221.566C1344.32 211.947 1340.44 202.8 1335.91 193.993C1331.94 186.29 1327.43 178.84 1322.76 171.537C1320.44 167.918 1317.31 164.949 1312.13 165.923C1309.72 166.376 1307.16 166 1304.27 166C1304.27 183.85 1304.27 201.594 1304.27 219.668C1295.48 219.668 1287.07 219.668 1278.31 219.668C1278.22 218.803 1278.01 217.708 1278.01 216.613C1278 174.116 1278.03 131.618 1277.94 89.1215C1277.93 85.9538 1278.62 84.1376 1282.05 83.9889C1296.72 83.3525 1311.39 82.0503 1326.05 82.1993C1337.39 82.3146 1348.27 85.5181 1356.06 94.7089C1358.83 97.9683 1360.71 101.974 1363.03 106.048ZM1321.97 145.981C1327.01 144.498 1332.01 142.935 1335.26 138.32C1341.23 129.845 1340.75 120.633 1336.68 111.99C1335.06 108.529 1330.39 104.976 1326.63 104.362C1319.3 103.166 1311.64 104.011 1304.32 104.011C1304.32 118.43 1304.32 132.142 1304.32 145.999C1310.11 145.999 1315.58 145.999 1321.97 145.981Z" fill="white"/>
    <path d="M1102.01 568.681C1098.12 544.021 1100.68 519.618 1100.05 495.302C1099.78 485.019 1100 474.724 1100 464.219C1108.76 464.219 1117.16 464.219 1126 464.219C1126 465.963 1126 467.579 1126 469.195C1126 497.184 1125.92 525.173 1126.09 553.16C1126.12 557.3 1126.93 561.551 1128.09 565.542C1130.38 573.41 1136.97 578.093 1145.23 577.954C1151.88 577.843 1158.54 578.813 1165.04 575.663C1172.21 572.189 1175.09 566.174 1175.86 559.138C1176.78 550.794 1176.91 542.339 1176.95 533.93C1177.09 510.8 1177 487.669 1177 464.269C1185.32 464.269 1193.39 464.269 1201.78 464.269C1201.85 465 1201.99 465.777 1201.99 466.554C1202 491.71 1202.49 516.88 1201.79 542.017C1201.45 554.208 1200.99 566.61 1195.5 578.189C1189.72 590.373 1180.43 598.578 1167.54 600.407C1156 602.045 1143.82 602.12 1132.32 600.343C1116.61 597.915 1107.29 586.992 1103.01 571.82C1102.75 570.899 1102.36 570.015 1102.01 568.681Z" fill="white"/>
    <path d="M751.001 92.0388C751.001 120.026 750.92 147.518 751.095 175.009C751.119 178.804 752.151 182.663 753.177 186.365C754.824 192.306 759.472 195.724 765.093 196.404C771.931 197.231 779.124 197.631 785.833 196.407C794.932 194.746 800.862 186.044 800.985 176.497C801.362 147.091 801.668 117.684 801.998 88.2771C802.017 86.6538 802.001 85.0301 802.001 83.207C810.119 83.207 817.856 83.207 826.001 83.207C826.001 88.8297 826.001 94.2829 826.001 99.7362C826.001 123.229 826.126 146.723 825.944 170.214C825.863 180.643 824.023 190.842 818.956 200.127C811.758 213.319 800.026 219.204 785.505 221.112C775.285 222.456 765.464 221.61 755.503 219.245C741.723 215.973 733.063 207.317 729.177 194.259C726.849 186.434 725.317 178.086 725.184 169.944C724.714 141.153 725.001 112.349 725.001 83.276C733.643 83.276 742.047 83.276 751.001 83.276C751.001 85.9979 751.001 88.7704 751.001 92.0388Z" fill="white"/>
    <path d="M1781.98 187.111C1785.04 197.822 1788.08 208.117 1791.24 218.828C1782.52 219.64 1774.09 220.423 1765.51 221.221C1761.82 208.66 1758.21 196.421 1754.56 183.998C1741.67 183.998 1728.85 183.921 1716.03 184.114C1714.7 184.134 1712.57 185.492 1712.19 186.674C1708.99 196.59 1705.47 206.48 1703.39 216.653C1702.32 221.905 1699.52 221.198 1696.41 220.922C1690.75 220.422 1685.13 219.537 1678.56 218.693C1680.4 211.978 1681.98 205.354 1684.02 198.874C1695.62 162.021 1707.4 125.222 1718.91 88.3412C1720.19 84.2372 1721.93 82.6065 1726.35 82.8908C1732.82 83.3079 1739.34 83.0564 1745.84 82.9684C1748.28 82.9352 1749.35 83.5263 1750.2 86.2751C1760.32 119.222 1770.7 152.089 1781.04 184.97C1781.23 185.582 1781.65 186.121 1781.98 187.111ZM1729.56 128.957C1726.14 139.904 1722.73 150.852 1719.35 161.708C1729.03 161.708 1738.44 161.708 1747.88 161.708C1742.9 144.513 1738 127.597 1733.48 111.986C1732.49 116.577 1731.23 122.402 1729.56 128.957Z" fill="white"/>
    <path d="M856.792 376.517C853.246 388.113 849.885 399.312 846.26 411.387C838.869 410.73 830.98 410.028 822.5 409.274C824.276 402.656 825.607 396.885 827.371 391.25C837.854 357.772 848.43 324.324 859.002 290.875C859.531 289.199 860.361 287.62 860.972 285.967C862.407 282.083 862.727 276.693 865.5 274.704C868.284 272.708 873.494 274.049 877.641 274.012C882.956 273.964 888.271 274 893.944 274C907.796 318.797 921.607 363.464 935.714 409.085C926.655 409.937 918.28 410.724 909.622 411.539C905.867 398.808 902.26 386.578 898.55 374.001C885.595 374.001 872.459 373.964 859.325 374.091C858.535 374.099 857.759 375.413 856.792 376.517ZM877.957 300.928C877.83 300.821 877.712 300.696 877.571 300.613C877.488 300.564 877.367 300.581 877.263 300.568C877.022 311.755 872.344 321.826 869.304 332.312C867.446 338.722 865.687 345.162 863.87 351.636C873.51 351.636 882.692 351.636 891.583 351.636C887.006 334.831 882.502 318.293 877.957 300.928Z" fill="white"/>
    <path d="M1486 374C1481.17 374 1476.84 374.079 1472.51 373.97C1469.94 373.905 1468.56 374.38 1467.72 377.412C1464.64 388.54 1461.04 399.523 1457.37 411.398C1449.87 410.73 1441.96 410.026 1433.51 409.274C1437.35 396.27 1440.75 384.094 1444.54 372.034C1453.26 344.205 1462.16 316.432 1471.01 288.643C1471.39 287.428 1472 286.285 1472.44 285.084C1473.76 281.476 1474.07 276.094 1476.6 274.677C1479.93 272.818 1485 274.044 1489.32 274.009C1494.31 273.969 1499.3 274 1505.24 274C1519.03 318.644 1532.87 363.438 1547.02 409.233C1538.67 409.876 1531.39 410.597 1524.08 410.854C1522.75 410.902 1520.52 409.325 1520.11 408.048C1516.88 397.976 1513.92 387.814 1511.05 377.632C1510.34 375.118 1509.41 373.83 1506.49 373.929C1499.83 374.154 1493.16 374 1486 374ZM1485.54 352C1491.31 352 1497.09 352 1503.24 352C1500.73 343.16 1498.36 334.856 1496 326.553C1493.63 318.239 1491.26 309.926 1489.32 303.133C1484.93 318.166 1480.04 334.875 1475.04 352C1478.32 352 1481.44 352 1485.54 352Z" fill="white"/>
    <path d="M833.02 599.999C829.211 599.999 825.9 599.999 822.295 599.999C822.295 554.752 822.295 509.705 822.295 464.328C848.337 464.328 874.542 464.328 900.648 464.328C900.08 471.78 899.515 479.202 898.922 486.985C881.912 486.985 865.169 486.985 848.215 486.985C848.215 497.761 848.215 508.16 848.215 518.951C860.748 518.951 873.152 518.951 885.774 518.951C885.774 526.407 885.774 533.475 885.774 540.935C873.266 540.935 860.863 540.935 848.233 540.935C848.233 553.056 848.233 564.788 848.233 576.909C866.708 576.909 885.108 576.909 904.42 576.909C903.602 584.872 902.833 592.362 902.048 599.999C878.784 599.999 856.15 599.999 833.02 599.999Z" fill="white"/>
    <path d="M1765.2 351.002C1764.14 352.101 1763.09 353.192 1763.08 354.296C1762.95 364.954 1763 375.615 1763 386.811C1781.6 386.811 1800.15 386.811 1818.79 386.811C1818.12 394.764 1817.5 402.174 1816.86 409.784C1790.28 409.784 1763.87 409.784 1737.23 409.784C1737.23 364.62 1737.23 319.564 1737.23 274.254C1763.01 274.254 1788.74 274.254 1815.23 274.254C1814.81 281.141 1814.57 287.996 1813.77 294.785C1813.66 295.692 1810.76 296.886 1809.14 296.904C1793.99 297.066 1778.84 297 1763.34 297C1763.34 307.165 1763.34 317.236 1763.34 327.705C1775.16 327.705 1787.24 327.705 1799.65 327.705C1799.65 335.49 1799.65 342.897 1799.65 351C1788.5 351 1777.09 351 1765.2 351.002Z" fill="white"/>
    <path d="M1227.93 160.999C1217.47 160.999 1207.5 160.999 1197.26 160.999C1197.26 173.001 1197.26 184.74 1197.26 196.883C1215.68 196.883 1234.09 196.883 1253.42 196.883C1252.6 204.866 1251.83 212.36 1251.06 219.873C1224.46 219.873 1198.5 219.873 1172.27 219.873C1172.27 174.343 1172.27 128.938 1172.27 83.2656C1198 83.2656 1223.74 83.2656 1250.17 83.2656C1249.44 90.7238 1248.71 98.1207 1247.95 105.872C1231.08 105.872 1214.31 105.872 1197.27 105.872C1197.27 116.642 1197.27 127.048 1197.27 137.857C1209.65 137.857 1222.06 137.857 1234.73 137.857C1234.73 145.659 1234.73 153.065 1234.73 160.999C1232.64 160.999 1230.53 160.999 1227.93 160.999Z" fill="white"/>
    <path d="M1113.73 210.668C1112.54 213.896 1111.6 216.786 1110.59 219.848C1101.4 219.848 1092.1 219.848 1081.53 219.848C1068.2 175.132 1054.76 130.028 1041.15 84.3804C1049.63 83.5252 1057.2 82.8422 1064.74 81.9596C1067.55 81.63 1068.38 83.1232 1069.01 85.3909C1076.21 111.363 1083.51 137.309 1090.66 163.296C1093.13 172.261 1095.25 181.32 1097.2 189.031C1103.45 166.762 1110.08 143.294 1116.61 119.799C1119.84 108.203 1122.8 96.5316 1126.17 84.9788C1126.54 83.7005 1128.87 82.0799 1130.21 82.1509C1137.38 82.5298 1144.52 83.3962 1152.16 84.1421C1146.65 103.467 1141.49 122.607 1135.72 141.567C1128.73 164.567 1121.24 187.415 1113.73 210.668Z" fill="white"/>
    <path d="M1397.32 193.72C1408.26 197.355 1419.02 199.467 1430.26 199.073C1440.04 198.73 1444.96 195.588 1447.58 186.948C1449.4 180.973 1446.12 173.257 1439.21 169.106C1431.92 164.732 1424.3 160.9 1416.74 157.004C1408.26 152.64 1400.41 147.639 1394.96 139.479C1387.59 128.437 1388.56 109.234 1396.65 98.7379C1405.09 87.7994 1416.55 83.1917 1429.7 82.0935C1436.16 81.5544 1442.71 81.7497 1449.19 82.0444C1455.68 82.3391 1462.15 83.1722 1469.06 83.8097C1467.94 91.8121 1466.9 99.2662 1465.78 107.221C1459.98 106.254 1454.46 104.738 1448.89 104.544C1439.89 104.231 1430.52 101.509 1422.04 107.009C1416.15 110.823 1414.22 122.592 1419.65 126.852C1426.96 132.579 1435.29 136.99 1443.14 142.024C1450.19 146.543 1457.95 150.297 1464.06 155.862C1481.95 172.166 1477.05 209.011 1449.39 217.951C1439.3 221.211 1429.02 223.278 1418.26 221.066C1410.35 219.441 1402.36 218.192 1394.35 217.149C1390.42 216.636 1389.32 214.617 1390.04 211.235C1391.24 205.576 1392.61 199.947 1394.12 194.365C1394.26 193.848 1395.99 193.763 1397.32 193.72Z" fill="white"/>
    <path d="M1337.99 299.059C1348.24 280.65 1363.95 272.295 1384.41 271.958C1395.91 271.768 1407.21 272.666 1418.32 275.906C1421.98 276.974 1423.65 278.69 1423 282.475C1421.91 288.855 1420.84 295.239 1419.81 301.378C1412.83 299.376 1405.98 296.537 1398.86 295.559C1386.87 293.912 1374.84 293.688 1365.97 304.505C1361.18 310.337 1358.9 317.226 1358.14 324.406C1357.21 333.249 1356.63 342.246 1357.18 351.095C1357.85 361.865 1359.17 372.9 1367.61 381.017C1375.49 388.599 1385.47 390.482 1395.71 388.475C1403.79 386.89 1411.51 383.454 1419.45 381.046C1420.43 380.749 1422.72 381.531 1422.84 382.13C1424.26 389.097 1425.38 396.125 1426.62 403.393C1410.38 411.019 1394.14 413.544 1376.89 411.138C1365.1 409.493 1354.83 405.381 1346.36 396.89C1337.72 388.212 1332.92 377.457 1331.2 365.695C1329.61 354.846 1328.93 343.736 1329.2 332.775C1329.5 321.162 1331.98 309.747 1337.99 299.059Z" fill="white"/>
    <path d="M747.001 322.234C746.341 328.824 744.682 335.065 745.235 341.104C746.342 353.191 745.622 365.705 752.872 376.693C759.906 387.353 773.183 390.69 783.779 388.495C792.778 386.631 801.515 383.502 811.103 380.719C812.292 386.877 813.838 393.857 814.811 400.915C814.976 402.118 812.947 404.4 811.485 404.915C805.014 407.195 798.488 409.624 791.772 410.822C785.341 411.969 778.62 412.239 772.078 411.898C746.268 410.548 727.932 397.154 720.952 370.918C717.251 357.003 717.143 342.782 718.247 328.757C719.562 312.068 724.83 296.43 737.861 284.677C746.539 276.849 757.001 272.728 768.528 272.103C782.279 271.358 796.025 271.918 809.088 277.079C810.332 277.571 811.991 279.546 811.846 280.612C810.877 287.722 809.47 294.772 808.201 301.861C795.039 295.892 782.069 293.129 768.327 296.017C759.221 297.931 753.495 303.885 750.057 312.203C748.78 315.292 748.005 318.59 747.001 322.234Z" fill="white"/>
    <path d="M1262.66 496.84C1255.66 509.398 1254.68 522.933 1255.24 536.402C1255.59 544.824 1257.86 553.257 1260.01 561.493C1263.07 573.23 1273.86 578.26 1283.6 579.004C1296.83 580.014 1308.88 576.218 1320.83 569.519C1322.27 577.741 1323.63 585.465 1325.03 593.413C1315.32 598.833 1304.87 601.747 1293.75 601.951C1284.09 602.129 1274.37 602.671 1264.95 599.505C1246.68 593.364 1235.56 580.486 1231.18 562.156C1228.85 552.436 1227.17 542.259 1227.31 532.318C1227.57 513.804 1229.93 495.411 1242.34 480.291C1250.14 470.782 1260.56 465.165 1272.54 463.113C1288.06 460.454 1303.37 462.199 1318.38 466.946C1321.34 467.882 1322.48 468.655 1321.48 472.33C1319.76 478.682 1319.17 485.336 1318.22 491.1C1308.94 489.002 1300.17 486.231 1291.21 485.196C1280.1 483.914 1269.99 486.921 1262.66 496.84Z" fill="white"/>
    <path d="M768.999 493.088C768.999 528.86 768.999 564.144 768.999 599.713C760.384 599.713 751.982 599.713 743.206 599.713C743.206 562.401 743.206 525.015 743.206 487.237C732.445 487.237 722.039 487.237 711.318 487.237C711.318 479.453 711.318 472.049 711.318 464.32C741.204 464.32 771.26 464.32 802.319 464.32C801.874 471.133 801.563 478.119 800.77 485.05C800.677 485.856 797.923 486.883 796.385 486.913C787.427 487.09 778.463 486.999 768.999 486.999C768.999 489.053 768.999 490.826 768.999 493.088Z" fill="white"/>
    <path d="M992 301.137C992 337.587 992 373.551 992 409.757C983.288 409.757 974.883 409.757 966.076 409.757C966.076 372.28 966.076 334.874 966.076 297.069C955.275 297.069 944.865 297.069 934.23 297.069C934.23 289.265 934.23 281.86 934.23 274.227C964.418 274.227 994.497 274.227 1025.11 274.227C1024.35 281.776 1023.62 289.172 1022.84 297C1013.61 297 1004.48 297.139 995.362 296.922C992.295 296.85 991.604 298.04 992 301.137Z" fill="white"/>
    <path d="M1178 329.002C1178 310.534 1178 292.567 1178 274.301C1186.59 274.301 1194.99 274.301 1203.77 274.301C1203.77 311.575 1203.77 348.962 1203.77 386.736C1220.86 386.736 1237.6 386.736 1255.25 386.736C1254.79 394.618 1254.35 402.066 1253.9 409.756C1228.67 409.756 1203.6 409.756 1178 409.756C1178 382.998 1178 356.25 1178 329.002Z" fill="white"/>
    <path d="M996 212.934C996 169.473 996 126.505 996 83.2695C1004.66 83.2695 1013.06 83.2695 1021.73 83.2695C1021.73 128.665 1021.73 174.067 1021.73 219.735C1013.34 219.735 1004.93 219.735 996 219.735C996 217.638 996 215.533 996 212.934Z" fill="white"/>
    <path d="M1527 91.051C1527 134.179 1527 176.815 1527 219.725C1518.35 219.725 1509.95 219.725 1501.27 219.725C1501.27 174.345 1501.27 128.943 1501.27 83.2695C1509.65 83.2695 1518.06 83.2695 1527 83.2695C1527 85.6844 1527 88.1218 1527 91.051Z" fill="white"/>
    <path d="M1295.93 410C1289.47 410 1283.5 410 1277.26 410C1277.26 364.668 1277.26 319.6 1277.26 274.266C1285.66 274.266 1294.07 274.266 1302.74 274.266C1302.74 319.338 1302.74 364.406 1302.74 410C1300.64 410 1298.53 410 1295.93 410Z" fill="white"/>
    <path d="M1099.56 268.001C1092.9 267.644 1086.68 267.286 1079.92 266.897C1083.74 259.918 1087.38 253.167 1091.18 246.514C1091.63 245.731 1093.03 245.081 1094 245.067C1102.25 244.954 1110.51 245.002 1118.98 245.002C1116.16 254.737 1109.69 261.305 1102.81 267.547C1102.22 268.081 1100.96 267.867 1099.56 268.001Z" fill="white"/>
    <path d="M114.392 108.378C148.027 77.5847 186.002 54.8154 229.013 40.5656C265.604 28.4428 303.222 23.1484 341.643 25.2629C415.058 29.3032 479.581 55.6784 534.385 104.798C588.474 153.276 622.617 213.531 634.504 285.096C650.417 380.9 627.526 467.312 565.256 542.19C517.754 599.311 456.881 635.54 383.731 648.52C283.606 666.287 194.438 641.096 118.183 573.653C63.9157 525.656 30.1774 465.135 18.4771 393.724C2.13828 294.003 27.6694 205.399 94.3006 129.052C100.533 121.91 107.507 115.416 114.392 108.378ZM377.663 111.5C377.663 144.595 377.663 177.69 377.663 211.294C421.044 211.294 463.781 211.294 506.602 211.294C506.602 228.503 506.602 245.195 506.602 262.309C463.448 262.309 420.693 262.309 378.022 262.309C378.022 374.137 378.022 485.536 378.022 596.998C486.841 577.86 595.984 472.524 587.722 324.017C579.96 184.489 470.365 96.6661 378.193 82.1249C378.057 82.4208 377.805 82.7159 377.803 83.0127C377.741 92.175 377.703 101.337 377.663 111.5ZM328.526 372.949C328.526 366.487 328.526 360.025 328.526 353.59C227.08 349.763 148.406 306.195 91.8073 220.842C50.142 316.305 54.1846 407.531 114.538 492.486C166.228 565.244 239.193 600.3 328.547 603.164C328.547 526.078 328.547 449.983 328.526 372.949ZM188.743 196.747C174.697 180.336 164.101 161.849 155.783 140.409C146.24 150.484 137.53 159.811 128.649 168.973C126.075 171.629 125.749 173.836 127.542 177.226C166.101 250.142 226.101 291.921 308.107 301.747C314.781 302.547 321.556 302.505 328.762 302.878C328.762 288.83 328.762 275.61 328.762 262.25C272.798 260.734 226.15 239.389 188.743 196.747ZM253.81 132.663C244.995 120.88 239.473 107.64 236.427 92.2646C223.741 98.2094 211.47 103.96 199.36 109.634C215.293 176.092 278.349 212.891 327.973 210.715C327.973 197.524 327.973 184.332 327.973 171.181C294.074 167.977 273.276 157.242 253.81 132.663ZM325.656 120.044C329.136 120.439 328.255 117.848 328.258 116.067C328.274 106.251 328.202 96.4343 328.169 86.618C328.157 83.202 328.167 79.786 328.167 75.5156C313.551 76.7829 299.773 77.9774 286.108 79.1622C286.014 99.4983 303.183 117.12 325.656 120.044Z" fill="#FEFEFE"/>
    <path d="M377.662 110.998C377.703 101.336 377.74 92.1732 377.802 83.011C377.804 82.7142 378.057 82.419 378.197 82.125C470.365 96.6644 579.959 184.487 587.722 324.015C595.984 472.523 486.84 577.858 378.022 596.997C378.022 485.535 378.022 374.135 378.022 262.307C420.693 262.307 463.448 262.307 506.601 262.307C506.601 245.193 506.601 228.501 506.601 211.292C463.78 211.292 421.044 211.292 377.662 211.292C377.662 177.688 377.662 144.593 377.662 110.998Z" fill="#FDC300"/>
    <path d="M328.536 373.42C328.547 449.984 328.547 526.08 328.547 603.166C239.193 600.301 166.228 565.245 114.538 492.487C54.1845 407.532 50.142 316.307 91.8072 220.844C148.406 306.197 227.08 349.764 328.526 353.592C328.526 360.026 328.526 366.489 328.536 373.42Z" fill="#0178BB"/>
    <path d="M188.962 197.027C226.15 239.391 272.798 260.735 328.762 262.252C328.762 275.612 328.762 288.831 328.762 302.88C321.556 302.506 314.781 302.549 308.107 301.749C226.101 291.923 166.101 250.143 127.542 177.228C125.749 173.838 126.075 171.631 128.649 168.975C137.53 159.813 146.24 150.485 155.783 140.41C164.101 161.851 174.697 180.338 188.962 197.027Z" fill="#0279BB"/>
    <path d="M254.003 132.965C273.276 157.243 294.075 167.978 327.974 171.182C327.974 184.333 327.974 197.525 327.974 210.716C278.35 212.892 215.294 176.093 199.361 109.635C211.471 103.961 223.742 98.2105 236.428 92.2656C239.474 107.641 244.996 120.881 254.003 132.965Z" fill="#0279BB"/>
    <path d="M325.197 120.026C303.183 117.12 286.014 99.4983 286.108 79.1622C299.773 77.9774 313.55 76.7829 328.166 75.5156C328.166 79.786 328.156 83.202 328.168 86.618C328.202 96.4343 328.273 106.251 328.257 116.067C328.254 117.848 329.135 120.439 325.197 120.026Z" fill="#0379BC"/>
    </svg>
    